# This file uses centimeters as units for non-parametric coordinates.

mtllib test.mtl
g default
v -0.500000 -0.500000 0.000000
v 0.500000 -0.500000 0.000000
v -0.500000 0.500000 0.000000
v 0.500000 0.500000 0.000000
v 0.000000 0.000000 -0.005256
v -0.078125 -0.500000 -0.094002
v 0.500000 0.000000 0.000000
v 0.078125 0.500000 0.083412
v -0.500000 0.000000 0.000000
v 0.000000 -0.500000 -0.601611
v 0.500000 -0.500000 -0.601611
v 0.421875 -0.078125 -0.601611
v 0.078125 -0.078125 -0.601611
v -0.500000 0.500000 0.533836
v 0.000000 0.500000 0.533836
v -0.421875 0.078125 0.533836
v -0.078125 0.078125 0.533836
v -0.500000 0.250000 0.000000
v -0.427734 0.071289 0.267961
v -0.492188 0.257813 0.533836
v -0.500000 0.500000 0.266918
v -0.071289 0.071289 0.268650
v -0.250000 0.015625 0.533836
v 0.007813 0.500000 0.275259
v -0.007813 0.257813 0.533836
v -0.500000 -0.250000 0.000000
v -0.257813 -0.500000 -0.009400
v -0.071289 -0.251953 -0.086262
v -0.250977 -0.064453 0.069372
v 0.500000 0.250000 0.000000
v 0.257813 0.500000 0.008341
v 0.071289 0.251953 0.075628
v 0.250977 0.064453 -0.079212
v 0.500000 -0.250000 0.000000
v 0.427734 -0.071289 -0.301981
v 0.492188 -0.257813 -0.601611
v 0.500000 -0.500000 -0.300806
v 0.071289 -0.071289 -0.303509
v 0.250000 -0.015625 -0.601611
v -0.007813 -0.500000 -0.310206
v 0.007813 -0.257813 -0.601611
v -0.256836 -0.255859 -0.002028
v 0.256836 0.255859 0.000190
v 0.493164 -0.256836 -0.300806
v 0.250000 -0.007813 -0.307914
v 0.000000 -0.256836 -0.309090
v -0.493164 0.256836 0.266918
v -0.250000 0.007813 0.273115
v 0.000000 0.256836 0.274158
v -0.375000 -0.140625 0.016682
v -0.375000 -0.375000 0.000000
v -0.156250 -0.375000 -0.037601
v -0.140625 -0.140625 -0.003059
v 0.375000 0.140625 -0.018800
v 0.375000 0.375000 0.000000
v 0.156250 0.375000 0.033365
v 0.140625 0.140625 -0.003059
v 0.500000 -0.375000 -0.150403
v 0.484375 -0.140625 -0.150403
v 0.468750 -0.156250 -0.451208
v 0.500000 -0.375000 -0.451208
v 0.359375 0.000000 -0.169203
v 0.140625 -0.000000 -0.170144
v 0.156250 -0.031250 -0.451208
v 0.343750 -0.031250 -0.451208
v 0.000000 -0.140625 -0.170144
v -0.031250 -0.375000 -0.188003
v 0.000000 -0.375000 -0.451208
v 0.031250 -0.156250 -0.451208
v -0.500000 0.375000 0.133459
v -0.484375 0.140625 0.133459
v -0.468750 0.156250 0.400377
v -0.500000 0.375000 0.400377
v -0.359375 0.000000 0.150141
v -0.140625 0.000000 0.149200
v -0.156250 0.031250 0.400377
v -0.343750 0.031250 0.400377
v 0.000000 0.140625 0.149200
v 0.031250 0.375000 0.166824
v 0.000000 0.375000 0.400377
v -0.031250 0.156250 0.400377
v -0.375000 -0.253906 0.004171
v -0.257813 -0.375000 -0.009400
v -0.152344 -0.253906 -0.028965
v -0.253906 -0.148438 0.020088
v 0.375000 0.253906 -0.004700
v 0.257813 0.375000 0.008341
v 0.152344 0.253906 0.024259
v 0.253906 0.148438 -0.024265
v 0.496094 -0.253906 -0.150403
v 0.472656 -0.152344 -0.300806
v 0.492188 -0.257813 -0.451208
v 0.500000 -0.375000 -0.300806
v 0.250000 0.015625 -0.178839
v 0.152344 -0.023437 -0.305741
v 0.250000 -0.015625 -0.451208
v 0.347656 -0.023438 -0.305506
v -0.023438 -0.253906 -0.183539
v -0.007813 -0.375000 -0.310206
v 0.007813 -0.257813 -0.451208
v 0.023438 -0.152344 -0.305741
v -0.496094 0.253906 0.133459
v -0.472656 0.152344 0.266918
v -0.492188 0.257813 0.400377
v -0.500000 0.375000 0.266918
v -0.250000 -0.015625 0.158247
v -0.152344 0.023437 0.270853
v -0.250000 0.015625 0.400377
v -0.347656 0.023438 0.271089
v 0.023438 0.253906 0.162418
v 0.007813 0.375000 0.275259
v -0.007813 0.257813 0.400377
v -0.023438 0.152344 0.270853
v -0.500000 -0.125000 0.000000
v -0.500000 -0.375000 0.000000
v -0.375000 -0.500000 0.000000
v -0.156250 -0.500000 -0.037601
v -0.078125 -0.375000 -0.094002
v -0.050781 -0.132813 -0.063043
v -0.132813 -0.050781 0.052276
v -0.371094 -0.050781 0.058388
v 0.500000 0.125000 0.000000
v 0.500000 0.375000 0.000000
v 0.375000 0.500000 0.000000
v 0.156250 0.500000 0.033365
v 0.078125 0.375000 0.083412
v 0.050781 0.132813 0.052276
v 0.132813 0.050781 -0.063043
v 0.371094 0.050781 -0.065801
v 0.500000 -0.375000 0.000000
v 0.500000 -0.125000 0.000000
v 0.445313 -0.050781 -0.155103
v 0.421875 -0.078125 -0.451208
v 0.468750 -0.156250 -0.601611
v 0.500000 -0.375000 -0.601611
v 0.500000 -0.500000 -0.451208
v 0.500000 -0.500000 -0.150403
v 0.050781 -0.050781 -0.161215
v 0.078125 -0.078125 -0.451208
v 0.156250 -0.031250 -0.601611
v 0.343750 -0.031250 -0.601611
v -0.031250 -0.500000 -0.188003
v 0.000000 -0.500000 -0.451208
v 0.000000 -0.375000 -0.601611
v 0.031250 -0.156250 -0.601611
v -0.500000 0.375000 0.000000
v -0.500000 0.125000 0.000000
v -0.445313 0.050781 0.137630
v -0.421875 0.078125 0.400377
v -0.468750 0.156250 0.533836
v -0.500000 0.375000 0.533836
v -0.500000 0.500000 0.400377
v -0.500000 0.500000 0.133459
v -0.050781 0.050781 0.140388
v -0.078125 0.078125 0.400377
v -0.156250 0.031250 0.533836
v -0.343750 0.031250 0.533836
v 0.031250 0.500000 0.166824
v 0.000000 0.500000 0.400377
v 0.000000 0.375000 0.533836
v -0.031250 0.156250 0.533836
vt 0.000000 0.000000
vt 1.000000 0.000000
vt 0.000000 1.000000
vt 1.000000 1.000000
vt 0.500000 0.500000
vt 0.500000 0.000000
vt 1.000000 0.500000
vt 0.500000 1.000000
vt 0.000000 0.500000
vt 0.500000 0.000000
vt 1.000000 0.000000
vt 1.000000 0.500000
vt 0.500000 0.500000
vt 0.000000 1.000000
vt 0.500000 1.000000
vt 0.000000 0.500000
vt 0.500000 0.500000
vt 0.244141 0.244141
vt 0.755859 0.755859
vt 0.994141 0.244141
vt 0.750000 0.494141
vt 0.500000 0.244141
vt 0.005859 0.755859
vt 0.250000 0.505859
vt 0.500000 0.755859
vt 0.000000 0.250000
vt 0.250000 0.000000
vt 0.434570 0.248047
vt 0.249023 0.435547
vt 1.000000 0.750000
vt 0.750000 1.000000
vt 0.565430 0.751953
vt 0.750977 0.564453
vt 1.000000 0.250000
vt 0.933594 0.434570
vt 1.000000 0.250000
vt 1.000000 0.000000
vt 0.565430 0.434570
vt 0.750000 0.500000
vt 0.500000 0.000000
vt 0.500000 0.250000
vt 0.000000 0.750000
vt 0.066406 0.565430
vt 0.000000 0.750000
vt 0.000000 1.000000
vt 0.434570 0.565430
vt 0.250000 0.500000
vt 0.500000 1.000000
vt 0.500000 0.750000
vt 0.125000 0.359375
vt 0.125000 0.125000
vt 0.359375 0.125000
vt 0.359375 0.359375
vt 0.875000 0.640625
vt 0.875000 0.875000
vt 0.640625 0.875000
vt 0.640625 0.640625
vt 1.000000 0.125000
vt 0.984375 0.359375
vt 0.984375 0.359375
vt 1.000000 0.125000
vt 0.859375 0.500000
vt 0.640625 0.500000
vt 0.640625 0.484375
vt 0.859375 0.484375
vt 0.500000 0.359375
vt 0.484375 0.125000
vt 0.500000 0.125000
vt 0.515625 0.359375
vt 0.000000 0.875000
vt 0.015625 0.640625
vt 0.015625 0.640625
vt 0.000000 0.875000
vt 0.140625 0.500000
vt 0.359375 0.500000
vt 0.359375 0.515625
vt 0.140625 0.515625
vt 0.500000 0.640625
vt 0.515625 0.875000
vt 0.500000 0.875000
vt 0.484375 0.640625
vt 0.125000 0.246094
vt 0.246094 0.125000
vt 0.351563 0.246094
vt 0.246094 0.351563
vt 0.875000 0.753906
vt 0.753906 0.875000
vt 0.648438 0.753906
vt 0.753906 0.648438
vt 0.996094 0.246094
vt 0.976563 0.351563
vt 0.996094 0.246094
vt 1.000000 0.125000
vt 0.750000 0.515625
vt 0.648438 0.480469
vt 0.750000 0.492188
vt 0.851563 0.480469
vt 0.480469 0.246094
vt 0.496094 0.125000
vt 0.503906 0.246094
vt 0.519531 0.351563
vt 0.003906 0.753906
vt 0.023438 0.648438
vt 0.003906 0.753906
vt 0.000000 0.875000
vt 0.250000 0.484375
vt 0.351563 0.519531
vt 0.250000 0.507813
vt 0.148438 0.519531
vt 0.519531 0.753906
vt 0.503906 0.875000
vt 0.496094 0.753906
vt 0.480469 0.648438
vt 0.000000 0.375000
vt 0.000000 0.125000
vt 0.125000 0.000000
vt 0.375000 0.000000
vt 0.445313 0.125000
vt 0.449219 0.367188
vt 0.367188 0.449219
vt 0.128906 0.449219
vt 1.000000 0.625000
vt 1.000000 0.875000
vt 0.875000 1.000000
vt 0.625000 1.000000
vt 0.554688 0.875000
vt 0.550781 0.632813
vt 0.632813 0.550781
vt 0.871094 0.550781
vt 1.000000 0.125000
vt 1.000000 0.375000
vt 0.945313 0.449219
vt 0.945313 0.445313
vt 1.000000 0.375000
vt 1.000000 0.125000
vt 1.000000 0.000000
vt 1.000000 0.000000
vt 0.550781 0.449219
vt 0.554688 0.445313
vt 0.625000 0.500000
vt 0.875000 0.500000
vt 0.500000 0.000000
vt 0.500000 0.000000
vt 0.500000 0.125000
vt 0.500000 0.375000
vt 0.000000 0.875000
vt 0.000000 0.625000
vt 0.054688 0.550781
vt 0.054688 0.554688
vt 0.000000 0.625000
vt 0.000000 0.875000
vt 0.000000 1.000000
vt 0.000000 1.000000
vt 0.449219 0.550781
vt 0.445313 0.554688
vt 0.375000 0.500000
vt 0.125000 0.500000
vt 0.500000 1.000000
vt 0.500000 1.000000
vt 0.500000 0.875000
vt 0.500000 0.625000
vn -0.677416 -0.376981 0.631659
vn -0.214179 -0.118944 0.969526
vn -0.131059 -0.200007 0.970990
vn -0.321299 -0.587718 0.742533
vn -0.052260 -0.034726 0.998030
vn -0.009608 -0.065941 0.997777
vn 0.137075 -0.122439 0.982965
vn 0.086373 -0.336520 0.937707
vn 0.032308 -0.711902 0.701536
vn -0.008406 -0.008406 0.999929
vn 0.030864 -0.015786 0.999399
vn 0.000000 0.000000 1.000000
vn 0.038784 0.000000 0.999248
vn 0.169404 0.000000 0.985547
vn 0.163961 -0.028899 0.986043
vn 0.423580 -0.037736 0.905072
vn 0.410573 -0.158712 0.897909
vn 0.425973 0.000000 0.904736
vn 0.769065 0.000000 0.639171
vn 0.768749 -0.040211 0.638286
vn 0.757682 -0.168079 0.630609
vn 0.398295 -0.392082 0.829236
vn 0.387470 -0.678816 0.623760
vn 0.699896 -0.403141 0.589595
vn 0.598115 -0.598115 0.533402
vn -0.712233 -0.387998 0.584962
vn -0.239414 -0.132960 0.961771
vn -0.152702 -0.221925 0.963032
vn -0.346005 -0.627886 0.697165
vn -0.058863 -0.039114 0.997500
vn -0.018875 -0.073539 0.997114
vn 0.118967 -0.133062 0.983942
vn 0.069506 -0.366887 0.927665
vn 0.020557 -0.750298 0.660780
vn -0.009473 -0.009473 0.999910
vn 0.025711 -0.017621 0.999514
vn 0.000000 0.000000 1.000000
vn 0.034421 0.000000 0.999408
vn 0.150781 0.000000 0.988567
vn 0.145418 -0.031436 0.988871
vn 0.383940 -0.039380 0.922518
vn 0.375725 -0.165572 0.911821
vn 0.385494 0.000000 0.922710
vn 0.729859 0.000000 0.683598
vn 0.729994 -0.040975 0.682224
vn 0.721885 -0.171239 0.670492
vn 0.377560 -0.410370 0.830087
vn 0.379443 -0.705983 0.598006
vn 0.673800 -0.409333 0.615175
vn -1.000000 0.000000 0.000000
vn -0.999948 -0.007874 0.006544
vn -0.999873 -0.014864 0.005765
vn -1.000000 0.000000 0.000000
vn -0.998647 -0.032489 0.040613
vn -0.997413 -0.062206 0.036031
vn -0.993461 -0.112138 0.021440
vn -0.999655 -0.026043 0.003330
vn -1.000000 0.000000 0.000000
vn -0.979573 -0.111754 0.167176
vn -0.973557 -0.188013 0.129761
vn -0.772324 -0.567468 0.285475
vn -0.726553 -0.677899 0.112133
vn -0.947627 -0.313051 0.063261
vn -0.934561 -0.355439 0.016106
vn -0.990645 -0.136357 0.005477
vn -0.710825 -0.702837 0.027348
vn -0.707107 -0.707107 0.000000
vn -0.931243 -0.364400 0.000000
vn -0.989950 -0.141421 0.000000
vn -0.999513 -0.031203 0.000837
vn -1.000000 0.000000 0.000000
vn -0.999480 -0.032241 0.000000
vn -1.000000 0.000000 0.000000
vn -0.360487 -0.875153 0.322732
vn 0.001358 -0.951438 0.307837
vn -0.000400 -0.992918 0.118800
vn -0.341211 -0.931948 0.122667
vn 0.348413 -0.881603 0.318410
vn 0.666738 -0.666738 0.333047
vn 0.700725 -0.700725 0.134049
vn 0.336056 -0.933434 0.125570
vn 0.340436 -0.939799 0.029676
vn -0.000049 -0.999610 0.027940
vn 0.706749 -0.706749 0.031796
vn 0.707107 -0.707107 0.000000
vn 0.341743 -0.939793 0.000000
vn 0.000000 -1.000000 0.000000
vn -0.341199 -0.939538 0.029175
vn -0.341743 -0.939793 0.000000
vn 0.870813 -0.375409 0.317416
vn 0.939654 -0.152184 0.306415
vn 0.982554 -0.142894 0.119037
vn 0.923635 -0.361959 0.126029
vn 0.950590 -0.036035 0.308352
vn 0.950974 0.000000 0.309270
vn 0.993025 0.000000 0.117901
vn 0.992482 -0.033095 0.117835
vn 0.999117 -0.032311 0.026859
vn 0.989575 -0.141368 0.027485
vn 0.999641 0.000000 0.026800
vn 1.000000 0.000000 0.000000
vn 0.999480 -0.032241 0.000000
vn 0.989950 -0.141421 0.000000
vn 0.931061 -0.363655 0.029662
vn 0.931243 -0.364399 0.000000
vn -1.000000 0.000000 0.000000
vn -0.999942 -0.007873 0.007375
vn -0.999868 -0.014864 0.006497
vn -1.000000 0.000000 0.000000
vn -0.998420 -0.032517 0.045824
vn -0.997237 -0.062212 0.040586
vn -0.993402 -0.112110 0.024147
vn -0.999654 -0.026043 0.003753
vn -1.000000 0.000000 0.000000
vn -0.975677 -0.111815 0.188552
vn -0.971358 -0.187778 0.145612
vn -0.764394 -0.560706 0.318292
vn -0.725448 -0.676605 0.126216
vn -0.947185 -0.312687 0.071193
vn -0.934561 -0.355340 0.018146
vn -0.990643 -0.136340 0.006170
vn -0.710788 -0.702730 0.030833
vn -0.707107 -0.707107 0.000000
vn -0.931243 -0.364399 0.000000
vn -0.989950 -0.141421 0.000000
vn -0.999513 -0.031203 0.000943
vn -1.000000 0.000000 0.000000
vn -0.999480 -0.032241 0.000000
vn -1.000000 0.000000 0.000000
vn -0.355132 -0.863059 0.359182
vn 0.005273 -0.939765 0.341781
vn 0.000449 -0.991057 0.133440
vn -0.340198 -0.930168 0.138032
vn 0.351298 -0.868968 0.348546
vn 0.659513 -0.659513 0.360672
vn 0.699159 -0.699159 0.149511
vn 0.336329 -0.931216 0.140429
vn 0.340486 -0.939656 0.033400
vn 0.000056 -0.999505 0.031475
vn 0.706654 -0.706654 0.035772
vn 0.707107 -0.707107 0.000000
vn 0.341743 -0.939793 0.000000
vn 0.000000 -1.000000 0.000000
vn -0.341085 -0.939457 0.032886
vn -0.341743 -0.939793 0.000000
vn 0.858479 -0.377419 0.347229
vn 0.927985 -0.153693 0.339443
vn 0.980625 -0.143265 0.133601
vn 0.921422 -0.362117 0.140904
vn 0.938650 -0.036384 0.342946
vn 0.938926 0.000000 0.344119
vn 0.991167 0.000000 0.132621
vn 0.990626 -0.033175 0.132512
vn 0.999019 -0.032320 0.030265
vn 0.989465 -0.141421 0.030958
vn 0.999544 0.000000 0.030200
vn 1.000000 0.000000 0.000000
vn 0.999480 -0.032241 0.000000
vn 0.989950 -0.141421 0.000000
vn 0.930917 -0.363703 0.033384
vn 0.931243 -0.364399 0.000000
s 1
g pPlane1
usemtl initialShadingGroup
f 9/9/1 114/114/2 50/50/3 121/121/4
f 114/114/2 26/26/5 82/82/6 50/50/3
f 50/50/3 82/82/6 42/18/7 85/85/8
f 121/121/4 50/50/3 85/85/8 29/29/9
f 26/26/5 115/115/10 51/51/11 82/82/6
f 115/115/10 1/1/12 116/116/13 51/51/11
f 51/51/11 116/116/13 27/27/14 83/83/15
f 82/82/6 51/51/11 83/83/15 42/18/7
f 42/18/7 83/83/15 52/52/16 84/84/17
f 83/83/15 27/27/14 117/117/18 52/52/16
f 52/52/16 117/117/18 6/6/19 118/118/20
f 84/84/17 52/52/16 118/118/20 28/28/21
f 29/29/9 85/85/8 53/53/22 120/120/23
f 85/85/8 42/18/7 84/84/17 53/53/22
f 53/53/22 84/84/17 28/28/21 119/119/24
f 120/120/23 53/53/22 119/119/24 5/5/25
f 7/7/26 122/122/27 54/54/28 129/129/29
f 122/122/27 30/30/30 86/86/31 54/54/28
f 54/54/28 86/86/31 43/19/32 89/89/33
f 129/129/29 54/54/28 89/89/33 33/33/34
f 30/30/30 123/123/35 55/55/36 86/86/31
f 123/123/35 4/4/37 124/124/38 55/55/36
f 55/55/36 124/124/38 31/31/39 87/87/40
f 86/86/31 55/55/36 87/87/40 43/19/32
f 43/19/32 87/87/40 56/56/41 88/88/42
f 87/87/40 31/31/39 125/125/43 56/56/41
f 56/56/41 125/125/43 8/8/44 126/126/45
f 88/88/42 56/56/41 126/126/45 32/32/46
f 33/33/34 89/89/33 57/57/47 128/128/48
f 89/89/33 43/19/32 88/88/42 57/57/47
f 57/57/47 88/88/42 32/32/46 127/127/49
f 128/128/48 57/57/47 127/127/49 5/5/25
f 2/2/50 130/130/51 58/58/52 137/137/53
f 130/130/51 34/34/54 90/90/55 58/58/52
f 58/58/52 90/90/55 44/20/56 93/93/57
f 137/137/53 58/58/52 93/93/57 37/37/58
f 34/34/54 131/131/59 59/59/60 90/90/55
f 131/131/59 7/7/26 132/132/61 59/59/60
f 59/59/60 132/132/61 35/35/62 91/91/63
f 90/90/55 59/59/60 91/91/63 44/20/56
f 44/20/56 91/91/63 60/60/64 92/92/65
f 91/91/63 35/35/62 133/133/66 60/60/64
f 60/60/64 133/133/66 12/12/67 134/134/68
f 92/92/65 60/60/64 134/134/68 36/36/69
f 37/37/58 93/93/57 61/61/70 136/136/71
f 93/93/57 44/20/56 92/92/65 61/61/70
f 61/61/70 92/92/65 36/36/69 135/135/72
f 136/136/71 61/61/70 135/135/72 11/11/73
f 7/7/26 129/129/29 62/62/74 132/132/61
f 129/129/29 33/33/34 94/94/75 62/62/74
f 62/62/74 94/94/75 45/21/76 97/97/77
f 132/132/61 62/62/74 97/97/77 35/35/62
f 33/33/34 128/128/48 63/63/78 94/94/75
f 128/128/48 5/5/25 138/138/79 63/63/78
f 63/63/78 138/138/79 38/38/80 95/95/81
f 94/94/75 63/63/78 95/95/81 45/21/76
f 45/21/76 95/95/81 64/64/82 96/96/83
f 95/95/81 38/38/80 139/139/84 64/64/82
f 64/64/82 139/139/84 13/13/85 140/140/86
f 96/96/83 64/64/82 140/140/86 39/39/87
f 35/35/62 97/97/77 65/65/88 133/133/66
f 97/97/77 45/21/76 96/96/83 65/65/88
f 65/65/88 96/96/83 39/39/87 141/141/89
f 133/133/66 65/65/88 141/141/89 12/12/67
f 5/5/25 119/119/24 66/66/90 138/138/79
f 119/119/24 28/28/21 98/98/91 66/66/90
f 66/66/90 98/98/91 46/22/92 101/101/93
f 138/138/79 66/66/90 101/101/93 38/38/80
f 28/28/21 118/118/20 67/67/94 98/98/91
f 118/118/20 6/6/19 142/142/95 67/67/94
f 67/67/94 142/142/95 40/40/96 99/99/97
f 98/98/91 67/67/94 99/99/97 46/22/92
f 46/22/92 99/99/97 68/68/98 100/100/99
f 99/99/97 40/40/96 143/143/100 68/68/98
f 68/68/98 143/143/100 10/10/101 144/144/102
f 100/100/99 68/68/98 144/144/102 41/41/103
f 38/38/80 101/101/93 69/69/104 139/139/84
f 101/101/93 46/22/92 100/100/99 69/69/104
f 69/69/104 100/100/99 41/41/103 145/145/105
f 139/139/84 69/69/104 145/145/105 13/13/85
f 3/3/106 146/146/107 70/70/108 153/153/109
f 146/146/107 18/42/110 102/102/111 70/70/108
f 70/70/108 102/102/111 47/23/112 105/105/113
f 153/153/109 70/70/108 105/105/113 21/45/114
f 18/42/110 147/147/115 71/71/116 102/102/111
f 147/147/115 9/9/1 148/148/117 71/71/116
f 71/71/116 148/148/117 19/43/118 103/103/119
f 102/102/111 71/71/116 103/103/119 47/23/112
f 47/23/112 103/103/119 72/72/120 104/104/121
f 103/103/119 19/43/118 149/149/122 72/72/120
f 72/72/120 149/149/122 16/16/123 150/150/124
f 104/104/121 72/72/120 150/150/124 20/44/125
f 21/45/114 105/105/113 73/73/126 152/152/127
f 105/105/113 47/23/112 104/104/121 73/73/126
f 73/73/126 104/104/121 20/44/125 151/151/128
f 152/152/127 73/73/126 151/151/128 14/14/129
f 9/9/1 121/121/4 74/74/130 148/148/117
f 121/121/4 29/29/9 106/106/131 74/74/130
f 74/74/130 106/106/131 48/24/132 109/109/133
f 148/148/117 74/74/130 109/109/133 19/43/118
f 29/29/9 120/120/23 75/75/134 106/106/131
f 120/120/23 5/5/25 154/154/135 75/75/134
f 75/75/134 154/154/135 22/46/136 107/107/137
f 106/106/131 75/75/134 107/107/137 48/24/132
f 48/24/132 107/107/137 76/76/138 108/108/139
f 107/107/137 22/46/136 155/155/140 76/76/138
f 76/76/138 155/155/140 17/17/141 156/156/142
f 108/108/139 76/76/138 156/156/142 23/47/143
f 19/43/118 109/109/133 77/77/144 149/149/122
f 109/109/133 48/24/132 108/108/139 77/77/144
f 77/77/144 108/108/139 23/47/143 157/157/145
f 149/149/122 77/77/144 157/157/145 16/16/123
f 5/5/25 127/127/49 78/78/146 154/154/135
f 127/127/49 32/32/46 110/110/147 78/78/146
f 78/78/146 110/110/147 49/25/148 113/113/149
f 154/154/135 78/78/146 113/113/149 22/46/136
f 32/32/46 126/126/45 79/79/150 110/110/147
f 126/126/45 8/8/44 158/158/151 79/79/150
f 79/79/150 158/158/151 24/48/152 111/111/153
f 110/110/147 79/79/150 111/111/153 49/25/148
f 49/25/148 111/111/153 80/80/154 112/112/155
f 111/111/153 24/48/152 159/159/156 80/80/154
f 80/80/154 159/159/156 15/15/157 160/160/158
f 112/112/155 80/80/154 160/160/158 25/49/159
f 22/46/136 113/113/149 81/81/160 155/155/140
f 113/113/149 49/25/148 112/112/155 81/81/160
f 81/81/160 112/112/155 25/49/159 161/161/161
f 155/155/140 81/81/160 161/161/161 17/17/141
